<svg width="56" height="56" viewBox="0 0 56 56" fill="none" xmlns="http://www.w3.org/2000/svg">
<g clip-path="url(#clip0_389_1036)">
<mask id="mask0_389_1036" style="mask-type:luminance" maskUnits="userSpaceOnUse" x="0" y="0" width="56" height="56">
<path d="M56 0H0V56H56V0Z" fill="white"/>
</mask>
<g mask="url(#mask0_389_1036)">
<g opacity="0.5">
<path d="M42 55.5C49.4558 55.5 55.5 49.4558 55.5 42C55.5 34.5442 49.4558 28.5 42 28.5C34.5442 28.5 28.5 34.5442 28.5 42C28.5 49.4558 34.5442 55.5 42 55.5Z" fill="#F7F8FA" stroke="#CCCCCC"/>
<path d="M36 42.0556L40.226 46.5L48 38.5" stroke="#CCCCCC" stroke-width="3" stroke-linecap="round" stroke-linejoin="round"/>
</g>
<path d="M14 28C21.732 28 28 21.732 28 14C28 6.26801 21.732 0 14 0C6.26801 0 0 6.26801 0 14C0 21.732 6.26801 28 14 28Z" fill="#004BD5"/>
<path d="M8 14.0556L12.226 18.5L20 10.5" stroke="white" stroke-width="3" stroke-linecap="round" stroke-linejoin="round"/>
<path d="M14 55.5C21.4558 55.5 27.5 49.4558 27.5 42C27.5 34.5442 21.4558 28.5 14 28.5C6.54416 28.5 0.5 34.5442 0.5 42C0.5 49.4558 6.54416 55.5 14 55.5Z" fill="white" stroke="#CCCCCC"/>
<path d="M8 42.0556L12.226 46.5L20 38.5" stroke="#CCCCCC" stroke-width="3" stroke-linecap="round" stroke-linejoin="round"/>
<g opacity="0.5">
<path d="M42 28C49.732 28 56 21.732 56 14C56 6.26801 49.732 0 42 0C34.268 0 28 6.26801 28 14C28 21.732 34.268 28 42 28Z" fill="#004BD5"/>
<path d="M36 14.0556L40.226 18.5L48 10.5" stroke="white" stroke-width="3" stroke-linecap="round" stroke-linejoin="round"/>
</g>
</g>
</g>
<defs>
<clipPath id="clip0_389_1036">
<rect width="56" height="56" fill="white"/>
</clipPath>
</defs>
</svg>
