<svg width="176" height="32" viewBox="0 0 176 32" fill="none" xmlns="http://www.w3.org/2000/svg">
<rect x="0.5" y="0.5" width="31" height="31" rx="3.5" fill="white" stroke="#DFE4EA"/>
<path fill-rule="evenodd" clip-rule="evenodd" d="M14.4697 21.5303C14.7626 21.8232 15.2374 21.8232 15.5303 21.5303C15.8232 21.2374 15.8232 20.7626 15.5303 20.4697L11.0607 16L15.5303 11.5303C15.8232 11.2374 15.8232 10.7626 15.5303 10.4697C15.2374 10.1768 14.7626 10.1768 14.4697 10.4697L9.46967 15.4697C9.17678 15.7626 9.17678 16.2374 9.46967 16.5303L14.4697 21.5303ZM20.4697 21.5303C20.7626 21.8232 21.2374 21.8232 21.5303 21.5303C21.8232 21.2374 21.8232 20.7626 21.5303 20.4697L17.0607 16L21.5303 11.5303C21.8232 11.2374 21.8232 10.7626 21.5303 10.4697C21.2374 10.1768 20.7626 10.1768 20.4697 10.4697L15.4697 15.4697C15.1768 15.7626 15.1768 16.2374 15.4697 16.5303L20.4697 21.5303Z" fill="#888888"/>
<rect x="40.5" y="0.5" width="31" height="31" rx="3.5" fill="white" stroke="#DFE4EA"/>
<path d="M58 21L53 16L58 11" stroke="#888888" stroke-width="1.5" stroke-linecap="round" stroke-linejoin="round"/>
<rect x="104.5" y="0.5" width="31" height="31" rx="3.5" fill="white" stroke="#DFE4EA"/>
<path d="M118 11L123 16L118 21" stroke="#888888" stroke-width="1.5" stroke-linecap="round" stroke-linejoin="round"/>
<rect x="144.5" y="0.5" width="31" height="31" rx="3.5" fill="white" stroke="#DFE4EA"/>
<path fill-rule="evenodd" clip-rule="evenodd" d="M155.53 10.4697C155.237 10.1768 154.763 10.1768 154.47 10.4697C154.177 10.7626 154.177 11.2374 154.47 11.5303L158.939 16L154.47 20.4697C154.177 20.7626 154.177 21.2374 154.47 21.5303C154.763 21.8232 155.237 21.8232 155.53 21.5303L160.53 16.5303C160.823 16.2374 160.823 15.7626 160.53 15.4697L155.53 10.4697ZM161.53 10.4697C161.237 10.1768 160.763 10.1768 160.47 10.4697C160.177 10.7626 160.177 11.2374 160.47 11.5303L164.939 16L160.47 20.4697C160.177 20.7626 160.177 21.2374 160.47 21.5303C160.763 21.8232 161.237 21.8232 161.53 21.5303L166.53 16.5303C166.823 16.2374 166.823 15.7626 166.53 15.4697L161.53 10.4697Z" fill="#888888"/>
</svg>
